<?xml version="1.0" encoding="UTF-8" standalone="no" ?>
<!DOCTYPE svg PUBLIC "-//W3C//DTD SVG 1.1//EN" "http://www.w3.org/Graphics/SVG/1.1/DTD/svg11.dtd">
<svg xmlns="http://www.w3.org/2000/svg" xmlns:xlink="http://www.w3.org/1999/xlink" version="1.1" width="1080" height="1080" viewBox="0 0 1080 1080" xml:space="preserve">
<desc>Created with Fabric.js 5.2.4</desc>
<defs>
</defs>
<rect x="0" y="0" width="100%" height="100%" fill="transparent"></rect>
<g transform="matrix(1 0 0 1 540 540)" id="154cf8c1-54ce-472f-8e0e-83e38a41027e"  >
</g>
<g transform="matrix(1 0 0 1 540 540)" id="34be9e7f-e4bd-4e34-bd81-3893f232304f"  >
<rect style="stroke: none; stroke-width: 1; stroke-dasharray: none; stroke-linecap: butt; stroke-dashoffset: 0; stroke-linejoin: miter; stroke-miterlimit: 4; fill: rgb(255,255,255); fill-rule: nonzero; opacity: 1; visibility: hidden;" vector-effect="non-scaling-stroke"  x="-540" y="-540" rx="0" ry="0" width="1080" height="1080" />
</g>
<g transform="matrix(1 0 0 1 540 540)"  >
<path style="stroke: rgb(241,7,171); stroke-width: 0; stroke-dasharray: none; stroke-linecap: butt; stroke-dashoffset: 0; stroke-linejoin: miter; stroke-miterlimit: 4; fill: rgb(49,72,242); fill-rule: nonzero; opacity: 1;" vector-effect="non-scaling-stroke"  transform=" translate(-256, -90.91)" d="M 399.47 126.45 C 414.76000000000005 126.45 427.15000000000003 138.84 427.15000000000003 154.13 C 427.15000000000003 169.42 414.76000000000005 181.81 399.47 181.81 C 384.18 181.81 371.79 169.42000000000002 371.79 154.13 C 371.79 138.83999999999997 384.18 126.44999999999999 399.47 126.44999999999999 z M 0.43 132.48 C -0.32 107.05999999999999 -0.10000000000000003 85.07 1.19 66.78999999999999 C 2.49 48.28999999999999 4.890000000000001 33.46999999999999 8.44 22.609999999999992 C 11.629999999999999 12.849999999999993 15.73 7.209999999999992 21.39 3.9399999999999906 C 26.98 0.72 33.78 0 42.57 0 L 421.03 0 C 428.79999999999995 0 436.09999999999997 0.11 443.26 1.17 C 450.53 2.25 457.57 4.3 464.64 8.19 C 469.02 10.6 472.62 13.84 475.61 17.67 C 477.63 20.23 479.36 23.060000000000002 480.86 26.050000000000004 C 482.1 25.530000000000005 483.42 25.100000000000005 484.77000000000004 24.750000000000004 C 496.98 21.040000000000003 512.02 22.590000000000003 512 35.43000000000001 L 511.95 59.870000000000005 C 511.94 62.78 509.56 65.16000000000001 506.65 65.16000000000001 L 504 65.16000000000001 C 502.54 65.16000000000001 501.35 63.97000000000001 501.35 62.52000000000001 L 501.35 38.84 C 501.35 36.24 500.04 34.010000000000005 497.11 33.220000000000006 C 493.99 32.580000000000005 490.34000000000003 32.7 487.02000000000004 33.550000000000004 C 485.98 33.82000000000001 484.98 34.17 484.03000000000003 34.59 C 486.79 44.52 489.41 54.49 491.71000000000004 64.58 C 494.31000000000006 76.03999999999999 496.48 87.56 497.92 99.16 L 497.94 99.47999999999999 L 497.94 134.57999999999998 L 497.91 134.94 C 497.31 145.53 492.8 151.64 486.07000000000005 155.16 C 479.66 158.51 471.36000000000007 159.29999999999998 462.63000000000005 159.42 L 435.21000000000004 159.42999999999998 C 433.75000000000006 159.42999999999998 432.56000000000006 158.23999999999998 432.56000000000006 156.76999999999998 L 432.58000000000004 156.43999999999997 C 432.62000000000006 155.69999999999996 432.65000000000003 154.93999999999997 432.65000000000003 154.13999999999996 C 432.65000000000003 145.45999999999995 429.3 137.48999999999995 423.79 131.53999999999996 C 418.27000000000004 125.58999999999996 410.58000000000004 121.64999999999996 401.91 121.02999999999996 C 400.28554652253604 120.90999798163277 398.654453477464 120.90999798163278 397.03000000000003 121.02999999999997 C 388.36 121.64999999999996 380.67 125.58999999999996 375.15000000000003 131.53999999999996 C 369.4499281023149 137.6849657462508 366.2848602683952 145.7583893406735 366.29 154.13999999999996 C 366.29 154.98999999999995 366.32 155.80999999999995 366.37 156.58999999999995 C 366.48 158.04999999999995 365.37 159.31999999999994 363.91 159.41999999999996 L 175.38000000000002 159.42999999999995 C 173.91000000000003 159.42999999999995 172.72000000000003 158.23999999999995 172.72000000000003 156.76999999999995 L 172.74000000000004 156.43999999999994 C 173.3831098887749 147.28108417904681 170.20046503903947 138.26540081631504 163.95000000000005 131.53999999999994 C 158.44000000000005 125.58999999999993 150.74000000000004 121.64999999999993 142.07000000000005 121.02999999999993 C 140.47000000000006 120.90999999999993 138.80000000000004 120.90999999999993 137.19000000000005 121.02999999999993 C 128.52000000000007 121.64999999999993 120.83000000000006 125.58999999999993 115.32000000000005 131.53999999999994 C 109.61303597794786 137.6813910267408 106.44380484962564 145.75632039540847 106.45000000000005 154.13999999999993 C 106.45000000000005 154.98999999999992 106.48000000000005 155.80999999999992 106.54000000000005 156.58999999999992 C 106.64000000000004 158.04999999999993 105.54000000000005 159.3199999999999 104.08000000000006 159.41999999999993 L 29.71000000000005 159.42999999999992 L 29.36000000000005 159.4099999999999 C 21.43000000000005 158.7599999999999 14.86000000000005 156.4199999999999 9.920000000000048 152.1099999999999 C 4.920000000000048 147.7399999999999 1.670000000000048 141.4499999999999 0.46000000000004704 132.93999999999988 L 0.430000000000047 132.47999999999988 z M 350.03000000000003 100.16 L 350.03000000000003 154.11 L 360.98 154.11 C 360.98 144.07000000000002 364.87 134.83 371.27000000000004 127.93 C 377.67 121.03 386.59000000000003 116.46000000000001 396.66 115.74000000000001 C 398.55 115.60000000000001 400.39000000000004 115.60000000000001 402.28000000000003 115.74000000000001 C 412.35 116.46000000000001 421.27000000000004 121.03000000000002 427.67 127.93 C 434.07 134.83 437.96000000000004 144.07 437.97 154.11 L 441.94000000000005 154.11 L 441.94000000000005 100.16000000000001 L 350.0300000000001 100.16000000000001 z M 346.71000000000004 154.11 L 346.71000000000004 100.16000000000001 L 270.01000000000005 100.16000000000001 L 270.01000000000005 154.11 L 346.71000000000004 154.11 z M 266.69000000000005 154.11 L 266.69000000000005 100.16000000000001 L 189.99000000000007 100.16000000000001 L 189.99000000000007 154.11 L 266.69000000000005 154.11 z M 186.67000000000007 154.11 L 186.67000000000007 100.16000000000001 L 39.56 100.16000000000001 L 39.56 154.11 L 101.14 154.11 C 101.14438204820148 144.39768055028384 104.82003903942567 135.04600902159103 111.43 127.93000000000002 C 117.83000000000001 121.03 126.76 116.46000000000001 136.82 115.74000000000001 C 138.70999999999998 115.60000000000001 140.56 115.60000000000001 142.45 115.74000000000001 C 152.51 116.46000000000001 161.42999999999998 121.03000000000002 167.83999999999997 127.93 C 174.23999999999998 134.83 178.11999999999998 144.07 178.12999999999997 154.11 L 186.66999999999996 154.11 z M 36.240000000000066 154.11 L 36.240000000000066 98.5 C 36.240000000000066 97.58 36.98000000000007 96.84 37.90000000000006 96.84 L 443.6 96.84 C 444.52000000000004 96.84 445.26000000000005 97.58 445.26000000000005 98.5 L 445.26000000000005 154.11 L 462.6 154.11 C 470.61 154.02 478.15000000000003 153.33 483.62 150.47000000000003 C 488.72 147.80000000000004 492.14 143.03000000000003 492.62 134.63000000000002 L 492.62 99.63000000000002 C 491.2 88.18000000000002 489.08 76.91000000000003 486.54 65.74000000000002 C 483.99 54.54000000000002 481 43.36000000000003 477.85 32.18000000000002 C 476.11 28.06000000000002 474.02000000000004 24.22000000000002 471.44 20.93000000000002 C 468.88 17.66000000000002 465.81 14.890000000000022 462.09 12.840000000000021 C 455.64 9.29000000000002 449.17999999999995 7.4100000000000215 442.48999999999995 6.420000000000021 C 435.71999999999997 5.420000000000021 428.60999999999996 5.310000000000021 421.03 5.310000000000021 L 42.57 5.310000000000021 C 34.62 5.310000000000021 28.58 5.900000000000021 24.03 8.53000000000002 C 19.560000000000002 11.100000000000021 16.23 15.850000000000021 13.48 24.25000000000002 C 10.07 34.70000000000002 7.760000000000001 49.09000000000002 6.49 67.14000000000001 C 6.34 69.27000000000001 6.2 71.45000000000002 6.08 73.69000000000001 L 8.24 73.69000000000001 C 9.85 73.69000000000001 11.17 75.00000000000001 11.17 76.61000000000001 L 11.17 99.84000000000002 C 11.17 101.79000000000002 9.57 103.39000000000001 7.609999999999999 103.39000000000001 L 5.3 103.39000000000001 C 5.28 112.46000000000001 5.42 122.10000000000002 5.72 132.29000000000002 C 6.76 139.43 9.39 144.62000000000003 13.399999999999999 148.12000000000003 C 17.43 151.64000000000004 22.97 153.56000000000003 29.779999999999998 154.11000000000004 L 36.239999999999995 154.11000000000004 z M 443.38 15.76 C 476.8 20.77 473.3 63.669999999999995 479.22 98.80000000000001 L 457.61 98.80000000000001 C 450.49 98.80000000000001 444.78000000000003 92.97000000000001 444.65000000000003 85.85000000000001 L 443.38000000000005 15.760000000000005 z M 54.31999999999999 15.82 L 63.89999999999999 15.82 C 63.89999999999999 15.97 63.90999999999999 16.12 63.93999999999999 16.28 L 73.52 70.69 L 48.81 70.69 C 36.760000000000005 70.69 26.880000000000003 60.82 26.880000000000003 48.76 L 26.880000000000003 43.25 C 26.880000000000003 28.17 39.230000000000004 15.82 54.32000000000001 15.82 z M 69.25 15.82 L 125.25 15.82 C 125.25 15.97 125.26 16.12 125.28 16.28 L 134.86 70.69 L 78.87 70.69 C 78.87 70.53999999999999 78.85000000000001 70.39 78.83 70.23 L 69.25 15.820000000000007 z M 130.59 15.82 L 186.59 15.82 C 186.59 15.97 186.6 16.12 186.63 16.28 L 196.2 70.69 L 140.20999999999998 70.69 C 140.20999999999998 70.53999999999999 140.2 70.39 140.17 70.23 L 130.58999999999997 15.820000000000007 z M 191.94 15.82 L 247.93 15.82 C 247.93 15.97 247.95000000000002 16.12 247.97 16.28 L 257.55 70.69 L 201.55 70.69 C 201.55 70.53999999999999 201.54000000000002 70.39 201.51000000000002 70.23 L 191.94000000000003 15.820000000000007 z M 253.28 15.82 L 309.28 15.82 C 309.28 15.97 309.28999999999996 16.12 309.32 16.28 L 318.89 70.69 L 262.9 70.69 C 262.9 70.53999999999999 262.89 70.39 262.85999999999996 70.23 L 253.27999999999994 15.820000000000007 z M 314.63 15.82 L 370.62 15.82 C 370.62 15.97 370.63 16.12 370.66 16.28 L 380.24 70.69 L 324.24 70.69 C 324.24 70.53999999999999 324.23 70.39 324.2 70.23 L 314.63 15.820000000000007 z M 375.97 15.82 L 435.74 15.82 L 435.74 70.69 L 385.59000000000003 70.69 C 385.59000000000003 70.53999999999999 385.57000000000005 70.39 385.55 70.23 L 375.97 15.820000000000007 z M 314.4 141.14 L 314.4 143.1 C 314.4 143.76 313.87 144.29 313.21 144.29 L 303.76 144.29 C 302.96999999999997 144.29 302.32 143.64 302.32 142.85 L 302.32 141.14 L 314.4 141.14 z M 234.38 141.14 L 234.38 143.1 C 234.38 143.76 233.85 144.29 233.19 144.29 L 223.74 144.29 C 222.95000000000002 144.29 222.3 143.64 222.3 142.85 L 222.3 141.14 L 234.38000000000002 141.14 z M 139.63 126.44999999999999 C 154.92 126.44999999999999 167.32 138.83999999999997 167.32 154.13 C 167.32 169.42000000000002 154.92 181.81 139.63 181.81 C 124.35 181.81 111.94999999999999 169.42000000000002 111.94999999999999 154.13 C 111.94999999999999 138.83999999999997 124.35 126.44999999999999 139.63 126.44999999999999 z M 139.64 148.47 C 142.76 148.47 145.29 151 145.29 154.13 C 145.29 157.25 142.76 159.79 139.64 159.79 C 136.55553487379936 159.73201631285963 134.08540018796995 157.21501008470347 134.08540018796995 154.13 C 134.08540018796995 151.04498991529653 136.55553487379936 148.52798368714036 139.64 148.47 z M 139.64 138.95 C 148.01999999999998 138.95 154.80999999999997 145.75 154.80999999999997 154.13 C 154.80999999999997 162.51 148.01999999999998 169.31 139.64 169.31 C 131.25 169.31 124.45999999999998 162.51 124.45999999999998 154.13 C 124.45999999999998 145.75 131.24999999999997 138.95 139.64 138.95 z M 399.46999999999997 148.47 C 402.55446512620057 148.52798368714036 405.02459981203003 151.0449899152965 405.02459981203003 154.13 C 405.02459981203003 157.21501008470347 402.55446512620057 159.73201631285963 399.46999999999997 159.79 C 396.34999999999997 159.79 393.80999999999995 157.25 393.80999999999995 154.13 C 393.80999999999995 151 396.34999999999997 148.47 399.46999999999997 148.47 z M 399.46999999999997 138.95 C 407.84999999999997 138.95 414.65 145.75 414.65 154.13 C 414.65 162.51 407.84999999999997 169.31 399.46999999999997 169.31 C 391.09 169.31 384.28999999999996 162.51 384.28999999999996 154.13 C 384.28999999999996 145.75 391.09 138.95 399.46999999999997 138.95 z" stroke-linecap="round" />
</g>
<g transform="matrix(1 0 0 1 540.5 555.19)" style="" id="2ddee561-2557-4be2-a319-7484377f6691"  >
		<text xml:space="preserve" font-family="Lato" font-size="66" font-style="normal" font-weight="400" style="stroke: none; stroke-width: 1; stroke-dasharray: none; stroke-linecap: butt; stroke-dashoffset: 0; stroke-linejoin: miter; stroke-miterlimit: 4; fill: rgb(237,12,133); fill-rule: nonzero; opacity: 1; white-space: pre;" ></text>
</g>
</svg>